<svg width="34" height="42" viewBox="0 0 34 42" fill="none" xmlns="http://www.w3.org/2000/svg">
  <path
    d="M15.587 26.6294C15.2231 26.6294 14.8593 26.4931 14.5807 26.2148L9.89051 21.5283C9.33337 20.9716 9.33337 20.074 9.89051 19.5173C10.4476 18.9606 11.3459 18.9606 11.903 19.5173L15.587 23.1984L23.9554 14.8365C24.5125 14.2798 25.4108 14.2798 25.9679 14.8365C26.525 15.3932 26.525 16.2907 25.9679 16.8474L16.5932 26.2148C16.3147 26.4931 15.9508 26.6294 15.587 26.6294Z"
    fill="black" />
  <path
    d="M16.7698 41.3706C15.7181 41.3706 14.6664 41.0695 13.7511 40.4617C11.4543 38.9449 0.0102539 31.1227 0.0102539 26.1919V8.33781C0.0102539 5.67928 8.89033 0.69165 16.7698 0.69165C24.6493 0.69165 33.5294 5.67928 33.5294 8.33781V26.1919C33.5294 31.1227 22.0854 38.9449 19.7886 40.4617C18.8733 41.0695 17.8216 41.3706 16.7698 41.3706ZM2.85279 8.63321V26.1919C2.85279 27.987 7.51458 32.9292 15.3202 38.0929C16.2014 38.6723 17.3384 38.678 18.2196 38.0929C26.0252 32.9292 30.6869 27.987 30.6869 26.1919V8.63321C29.7034 7.44596 23.7227 3.53196 16.7698 3.53196C9.81699 3.53196 3.83631 7.44596 2.85279 8.63321Z"
    fill="black" />
</svg>