<svg width="40" height="36" viewBox="0 0 40 36" fill="none" xmlns="http://www.w3.org/2000/svg">
                            <path fill-rule="evenodd" clip-rule="evenodd" d="M9.63846 19.277C7.81255 19.277 6.06142 20.0024 4.7703 21.2935C3.47919 22.5846 2.75385 24.3357 2.75385 26.1617C2.75385 27.9876 3.47919 29.7387 4.7703 31.0298C6.06142 32.3209 7.81255 33.0463 9.63846 33.0463C11.4644 33.0463 13.2155 32.3209 14.5066 31.0298C15.7977 29.7387 16.5231 27.9876 16.5231 26.1617C16.5231 24.3357 15.7977 22.5846 14.5066 21.2935C13.2155 20.0024 11.4644 19.277 9.63846 19.277ZM0 26.1617C0 23.6054 1.01548 21.1538 2.82304 19.3462C4.6306 17.5387 7.08218 16.5232 9.63846 16.5232C12.1947 16.5232 14.6463 17.5387 16.4539 19.3462C18.2614 21.1538 19.2769 23.6054 19.2769 26.1617C19.2769 28.7179 18.2614 31.1695 16.4539 32.9771C14.6463 34.7846 12.1947 35.8001 9.63846 35.8001C7.08218 35.8001 4.6306 34.7846 2.82304 32.9771C1.01548 31.1695 0 28.7179 0 26.1617ZM32.5872 24.7847C32.0447 24.7847 31.5076 24.8916 31.0064 25.0992C30.5052 25.3068 30.0499 25.611 29.6663 25.9946C29.2827 26.3782 28.9784 26.8336 28.7708 27.3347C28.5633 27.8359 28.4564 28.373 28.4564 28.9155C28.4564 29.458 28.5633 29.9951 28.7708 30.4963C28.9784 30.9974 29.2827 31.4528 29.6663 31.8364C30.0499 32.22 30.5052 32.5242 31.0064 32.7318C31.5076 32.9394 32.0447 33.0463 32.5872 33.0463C33.6827 33.0463 34.7334 32.6111 35.5081 31.8364C36.2827 31.0617 36.7179 30.011 36.7179 28.9155C36.7179 27.82 36.2827 26.7693 35.5081 25.9946C34.7334 25.2199 33.6827 24.7847 32.5872 24.7847ZM25.7026 28.9155C25.7026 27.0896 26.4279 25.3385 27.719 24.0473C29.0101 22.7562 30.7613 22.0309 32.5872 22.0309C34.4131 22.0309 36.1642 22.7562 37.4553 24.0473C38.7465 25.3385 39.4718 27.0896 39.4718 28.9155C39.4718 30.7414 38.7465 32.4925 37.4553 33.7837C36.1642 35.0748 34.4131 35.8001 32.5872 35.8001C30.7613 35.8001 29.0101 35.0748 27.719 33.7837C26.4279 32.4925 25.7026 30.7414 25.7026 28.9155Z" fill="black"/>
                            <path fill-rule="evenodd" clip-rule="evenodd" d="M9.63847 13.7691C6.8479 13.7691 4.27581 14.6907 2.20308 16.2476C1.91094 16.4667 1.54371 16.5608 1.1822 16.5091C0.82069 16.4575 0.4945 16.2643 0.27539 15.9722C0.0562806 15.6801 -0.0378002 15.3128 0.0138444 14.9513C0.065489 14.5898 0.258629 14.2636 0.550775 14.0445C2.84036 12.3273 5.56961 11.294 8.42235 11.0642C11.2751 10.8344 14.1346 11.4175 16.6695 12.7461C19.2044 14.0746 21.3111 16.0942 22.7453 18.5709C24.1796 21.0475 24.8829 23.8798 24.7736 26.7397C24.7608 27.0849 24.7516 27.3401 24.7497 27.5347C24.9223 27.5384 25.1243 27.5384 25.3776 27.5384H27.0795C27.4447 27.5384 27.7949 27.6834 28.0531 27.9416C28.3113 28.1999 28.4564 28.5501 28.4564 28.9153C28.4564 29.2805 28.3113 29.6307 28.0531 29.8889C27.7949 30.1471 27.4447 30.2922 27.0795 30.2922H25.3134C24.8691 30.2922 24.4193 30.2922 24.0484 30.2463C23.6445 30.1967 23.0754 30.0664 22.6146 29.5891C22.1354 29.0915 22.0418 28.471 22.0124 28.0744C21.991 27.6169 21.9935 27.1585 22.0198 26.7012L22.0216 26.6351C22.0853 24.9691 21.8122 23.3073 21.2186 21.7493C20.625 20.1913 19.7231 18.7691 18.567 17.5679C17.4108 16.3666 16.0241 15.4111 14.49 14.7583C12.9558 14.1056 11.3057 13.7691 9.63847 13.7691ZM20.2187 12.1388C20.2518 11.961 20.3197 11.7915 20.4183 11.6398C20.517 11.4882 20.6445 11.3575 20.7937 11.2553C20.9429 11.153 21.1108 11.0811 21.2878 11.0437C21.4647 11.0063 21.6473 11.0041 21.8251 11.0373L27.6156 12.1242C29.6901 12.5134 31.37 12.8291 32.6845 13.2477C34.0541 13.6828 35.1813 14.2758 36.0497 15.3205C36.9162 16.3651 37.2908 17.5878 37.467 19.0198C37.6359 20.393 37.6359 22.1133 37.6359 24.2356V24.3255C37.6359 24.6907 37.4908 25.0409 37.2326 25.2992C36.9744 25.5574 36.6242 25.7025 36.259 25.7025C35.8938 25.7025 35.5436 25.5574 35.2853 25.2992C35.0271 25.0409 34.8821 24.6907 34.8821 24.3255C34.8821 22.0912 34.8802 20.5436 34.7352 19.3558C34.592 18.2047 34.3313 17.5639 33.9292 17.0792C33.5253 16.5927 32.947 16.22 31.8492 15.8712C30.7164 15.5096 29.2036 15.225 27.0207 14.8156L21.3184 13.7453C21.1406 13.7122 20.9711 13.6443 20.8194 13.5457C20.6678 13.447 20.5371 13.3195 20.4348 13.1703C20.3326 13.0211 20.2607 12.8532 20.2233 12.6762C20.1859 12.4993 20.1855 12.3167 20.2187 12.1388Z" fill="black"/>
                            <path fill-rule="evenodd" clip-rule="evenodd" d="M31.2094 17.9C31.2094 17.5348 31.3544 17.1846 31.6126 16.9264C31.8709 16.6681 32.2211 16.5231 32.5863 16.5231H34.4222C34.7874 16.5231 35.1376 16.6681 35.3958 16.9264C35.654 17.1846 35.7991 17.5348 35.7991 17.9C35.7991 18.2652 35.654 18.6154 35.3958 18.8736C35.1376 19.1319 34.7874 19.2769 34.4222 19.2769H32.5863C32.2211 19.2769 31.8709 19.1319 31.6126 18.8736C31.3544 18.6154 31.2094 18.2652 31.2094 17.9ZM18.4903 0.0403899C18.6659 -0.00265774 18.8483 -0.0106867 19.027 0.0167617C19.2058 0.0442102 19.3774 0.106598 19.532 0.200364C19.6866 0.294129 19.8213 0.417434 19.9282 0.563239C20.0352 0.709043 20.1124 0.874491 20.1554 1.05013L22.5898 11.0007C22.8285 11.8011 22.9478 12.6346 22.9478 13.47V18.8179C22.9478 19.1831 22.8028 19.5334 22.5445 19.7916C22.2863 20.0498 21.9361 20.1949 21.5709 20.1949C21.2057 20.1949 20.8555 20.0498 20.5973 19.7916C20.339 19.5334 20.194 19.1831 20.194 18.8179V13.47C20.1946 12.8661 20.1037 12.2657 19.9241 11.6892L17.4805 1.70371C17.3941 1.34926 17.4519 0.975008 17.6413 0.663145C17.8306 0.351282 18.1359 0.127302 18.4903 0.0403899ZM5.04782 0C5.413 0 5.76323 0.145069 6.02145 0.403292C6.27968 0.661515 6.42474 1.01174 6.42474 1.37692V12.3923C6.42474 12.7575 6.27968 13.1077 6.02145 13.3659C5.76323 13.6242 5.413 13.7692 5.04782 13.7692C4.68264 13.7692 4.33241 13.6242 4.07419 13.3659C3.81597 13.1077 3.6709 12.7575 3.6709 12.3923V1.37692C3.6709 1.01174 3.81597 0.661515 4.07419 0.403292C4.33241 0.145069 4.68264 0 5.04782 0Z" fill="black"/>
                            <path fill-rule="evenodd" clip-rule="evenodd" d="M1.83594 1.37692C1.83594 1.01174 1.98101 0.661515 2.23923 0.403292C2.49745 0.145069 2.84768 0 3.21286 0H21.5718C21.937 0 22.2872 0.145069 22.5455 0.403292C22.8037 0.661515 22.9488 1.01174 22.9488 1.37692C22.9488 1.74211 22.8037 2.09233 22.5455 2.35055C22.2872 2.60878 21.937 2.75385 21.5718 2.75385H3.21286C2.84768 2.75385 2.49745 2.60878 2.23923 2.35055C1.98101 2.09233 1.83594 1.74211 1.83594 1.37692ZM34.4231 8.26154C33.1563 8.26154 32.1282 9.28964 32.1282 10.5564V13.3103C32.1282 13.6754 31.9832 14.0257 31.725 14.2839C31.4667 14.5421 31.1165 14.6872 30.7513 14.6872C30.3861 14.6872 30.0359 14.5421 29.7777 14.2839C29.5195 14.0257 29.3744 13.6754 29.3744 13.3103V10.5564C29.3744 9.8934 29.505 9.23689 29.7587 8.62435C30.0124 8.01181 30.3843 7.45524 30.8531 6.98643C31.7999 6.03961 33.0841 5.50769 34.4231 5.50769C34.7883 5.50769 35.1385 5.65276 35.3967 5.91098C35.655 6.16921 35.8 6.51943 35.8 6.88461C35.8 7.2498 35.655 7.60002 35.3967 7.85825C35.1385 8.11647 34.7883 8.26154 34.4231 8.26154Z" fill="black"/>
                            <path fill-rule="evenodd" clip-rule="evenodd" d="M10.5556 0C10.9208 0 11.271 0.145069 11.5293 0.403292C11.7875 0.661515 11.9326 1.01174 11.9326 1.37692V12.3923C11.9326 12.7575 11.7875 13.1077 11.5293 13.3659C11.271 13.6242 10.9208 13.7692 10.5556 13.7692C10.1905 13.7692 9.84023 13.6242 9.582 13.3659C9.32378 13.1077 9.17871 12.7575 9.17871 12.3923V1.37692C9.17871 1.01174 9.32378 0.661515 9.582 0.403292C9.84023 0.145069 10.1905 0 10.5556 0Z" fill="black"/>
                            </svg>