<svg width="16" height="16" viewBox="0 0 16 16" fill="none" xmlns="http://www.w3.org/2000/svg">
<path fill-rule="evenodd" clip-rule="evenodd" d="M5.29325 8.7066C5.10598 8.5191 5.00079 8.26493 5.00079 7.99993C5.00079 7.73493 5.10598 7.48077 5.29325 7.29327L9.06391 3.52127C9.25151 3.33376 9.50591 3.22845 9.77115 3.22852C10.0364 3.22858 10.2907 3.334 10.4782 3.5216C10.6658 3.7092 10.7711 3.9636 10.771 4.22884C10.7709 4.49408 10.6655 4.74843 10.4779 4.93593L7.41391 7.99993L10.4779 11.0639C10.6602 11.2525 10.7611 11.505 10.7589 11.7672C10.7568 12.0294 10.6517 12.2803 10.4664 12.4658C10.2811 12.6513 10.0303 12.7565 9.76811 12.7589C9.50592 12.7614 9.25327 12.6607 9.06458 12.4786L5.29258 8.70727L5.29325 8.7066Z" fill="black"/>
</svg>
