<svg width="43" height="43" viewBox="0 0 43 43" fill="none" xmlns="http://www.w3.org/2000/svg">
                              <g clip-path="url(#clip0_1520_9644)">
                                <path
                                  d="M42.1928 25.6018C42.1928 30.3634 40.7924 34.6115 37.9914 38.3461C37.7113 38.7196 37.3379 38.9296 36.8711 38.9763C36.4042 39.023 35.9841 38.9063 35.6106 38.6262C35.2372 38.3461 35.0271 37.996 34.9804 37.5759C34.9337 37.1557 35.0504 36.7589 35.3305 36.3855C37.758 33.2111 38.9718 29.6165 38.9718 25.6018C38.9718 22.4274 38.1782 19.4864 36.591 16.7789C35.0038 14.0713 32.833 11.9239 30.0788 10.3367C27.3245 8.74949 24.3602 7.95589 21.1858 7.95589C18.0114 7.95589 15.047 8.74949 12.2928 10.3367C9.53853 11.9239 7.3678 14.0713 5.7806 16.7789C4.1934 19.4864 3.39979 22.4274 3.39979 25.6018C3.39979 29.6165 4.61354 33.2111 7.04102 36.3855C7.32111 36.7589 7.43782 37.1557 7.39114 37.5759C7.34446 37.996 7.13438 38.3461 6.76093 38.6262C6.38747 38.9063 5.96733 39.023 5.5005 38.9763C5.03368 38.9296 4.66022 38.7196 4.38012 38.3461C1.57918 34.6115 0.178711 30.3634 0.178711 25.6018C0.178711 21.8672 1.11236 18.3894 2.97965 15.1683C4.84695 11.9472 7.39114 9.40305 10.6122 7.53575C13.8333 5.66846 17.3578 4.73481 21.1858 4.73481C25.0137 4.73481 28.5383 5.66846 31.7593 7.53575C34.9804 9.40305 37.5246 11.9472 39.3919 15.1683C41.2592 18.3894 42.1928 21.8672 42.1928 25.6018ZM31.5493 15.7985C31.9227 16.0786 32.1095 16.4521 32.1095 16.9189C32.1095 17.3857 31.9227 17.7592 31.5493 18.0393L26.2275 23.5011C26.6943 24.3414 26.9277 25.2284 26.9277 26.162C26.9277 27.7492 26.3675 29.103 25.2471 30.2234C24.1268 31.3438 22.773 31.9039 21.1858 31.9039C19.5986 31.9039 18.2448 31.3438 17.1244 30.2234C16.004 29.103 15.4438 27.7492 15.4438 26.162C15.4438 24.5748 16.004 23.221 17.1244 22.1006C18.2448 20.9803 19.5986 20.4201 21.1858 20.4201C22.1194 20.4201 23.0064 20.6535 23.8467 21.1203L29.3085 15.7985C29.5886 15.4251 29.9621 15.2383 30.4289 15.2383C30.8957 15.2383 31.2692 15.4251 31.5493 15.7985ZM23.7066 26.162C23.7066 25.5085 23.4499 24.9483 22.9364 24.4815C22.4229 24.0146 21.8393 23.7812 21.1858 23.7812C20.5322 23.7812 19.9487 24.0146 19.4352 24.4815C18.9217 24.9483 18.6649 25.5085 18.6649 26.162C18.6649 26.8156 18.9217 27.3991 19.4352 27.9126C19.9487 28.4261 20.5322 28.6829 21.1858 28.6829C21.8393 28.6829 22.4229 28.4261 22.9364 27.9126C23.4499 27.3991 23.7066 26.8156 23.7066 26.162Z"
                                  fill="black" />
                              </g>
                              <defs>
                                <clipPath id="clip0_1520_9644">
                                  <rect width="42.0141" height="42.0141" fill="white"
                                    transform="matrix(1 0 0 -1 0.178711 42.8276)" />
                                </clipPath>
                              </defs>
                            </svg>