<svg width="59" height="59" viewBox="0 0 59 59" fill="none" xmlns="http://www.w3.org/2000/svg">
                        <g clip-path="url(#clip0_1520_9890)">
                          <g clip-path="url(#clip1_1520_9890)">
                            <path
                              d="M23.9274 4.86792C20.2261 4.86792 16.8713 7.04562 15.3645 10.4262L9.26742 24.1054C5.61234 24.3566 2.72461 27.3991 2.72461 31.1179V36.5086C2.72461 39.7446 5.34797 42.3679 8.58398 42.3679H10.19C10.1987 41.917 10.2102 41.4662 10.2246 41.0153C9.84316 40.2378 9.62813 39.3638 9.62813 38.4393L9.52148 34.282C9.52148 31.2075 10.147 30.0242 12.4292 29.5645C13.514 29.3459 14.4222 28.6068 14.8667 27.5934L22.3957 10.4262C23.9024 7.04562 27.2573 4.86792 30.9586 4.86792H23.9274Z"
                              fill="#EEF1FB" />
                            <path
                              d="M8.58398 42.3679C5.34797 42.3679 2.72461 39.7446 2.72461 36.5086V31.1179C2.72461 27.3991 5.61234 24.3566 9.26742 24.1054L15.3645 10.4262C16.8712 7.04562 20.226 4.86792 23.9274 4.86792H34.6026C38.125 4.86792 41.3501 6.8423 42.952 9.97941L45.9668 15.8836M58.0371 31.1179C58.0371 27.2347 54.8891 24.0867 51.0059 24.0867H19.0137M28.6231 15.8836V4.98511M32.8418 42.3679H27.5682M21.1229 37.6804C18.5341 37.6804 16.4354 39.7791 16.4354 42.3679C16.4354 44.9567 18.5341 47.0554 21.1229 47.0554C23.7116 47.0554 25.8104 44.9567 25.8104 42.3679C25.8104 39.7791 23.7118 37.6804 21.1229 37.6804Z"
                              stroke="#0E0E0E" stroke-width="3" stroke-miterlimit="10" stroke-linecap="round"
                              stroke-linejoin="round" />
                            <path
                              d="M58.037 42.0164C58.037 46.5145 54.3906 50.2195 49.8925 50.2195C45.3944 50.2195 41.748 46.5731 41.748 42.075C41.748 37.5768 45.453 33.9304 49.9511 33.9304M43.916 48.5203L36.4746 55.9617"
                              stroke="#999999" stroke-width="3" stroke-miterlimit="10" stroke-linecap="round"
                              stroke-linejoin="round" />
                          </g>
                        </g>
                        <defs>
                          <clipPath id="clip0_1520_9890">
                            <rect width="58.2301" height="58.2301" fill="white" transform="translate(0.380859 0.414795)" />
                          </clipPath>
                          <clipPath id="clip1_1520_9890">
                            <rect width="60" height="60" fill="white" transform="translate(0.380859 0.414795)" />
                          </clipPath>
                        </defs>
                      </svg>