<svg width="18" height="18" viewBox="0 0 18 18" fill="none" xmlns="http://www.w3.org/2000/svg">
                <path d="M0.929001 17.916C0.701378 17.916 0.47377 17.8334 0.299496 17.6648C-0.0490509 17.3276 -0.0490509 16.7839 0.299496 16.4467L16.2758 0.98973C16.6243 0.652512 17.1862 0.652512 17.5348 0.98973C17.8833 1.32695 17.8833 1.87064 17.5348 2.20786L1.55853 17.6648C1.38425 17.8334 1.15662 17.916 0.929001 17.916Z" fill="white"/>
                <path d="M16.9053 17.916C16.6777 17.916 16.45 17.8334 16.2758 17.6648L0.299496 2.20786C-0.0490509 1.87064 -0.0490509 1.32695 0.299496 0.98973C0.648044 0.652512 1.20998 0.652512 1.55853 0.98973L17.5348 16.4467C17.8833 16.7839 17.8833 17.3276 17.5348 17.6648C17.3605 17.8334 17.1329 17.916 16.9053 17.916Z" fill="white"/>
                </svg>