<svg width="42" height="44" viewBox="0 0 42 44" fill="none" xmlns="http://www.w3.org/2000/svg">
                              <path
                                d="M38.0849 43.512H4.37249C2.40545 43.512 0.802246 41.9101 0.802246 39.9446V8.99663C0.802246 7.03113 2.40545 5.4292 4.37249 5.4292H38.0849C40.0519 5.4292 41.6551 7.03113 41.6551 8.99663V39.9446C41.6551 41.9101 40.0519 43.512 38.0849 43.512ZM4.37249 8.26951C3.96885 8.26951 3.64478 8.5933 3.64478 8.99663V39.9446C3.64478 40.3479 3.96885 40.6717 4.37249 40.6717H38.0849C38.4885 40.6717 38.8126 40.3479 38.8126 39.9446V8.99663C38.8126 8.5933 38.4885 8.26951 38.0849 8.26951H4.37249Z"
                                fill="black" />
                              <path
                                d="M40.2338 16.7336H2.22351C1.43897 16.7336 0.802246 16.0974 0.802246 15.3135C0.802246 14.5295 1.43897 13.8933 2.22351 13.8933H40.2338C41.0184 13.8933 41.6551 14.5295 41.6551 15.3135C41.6551 16.0974 41.0184 16.7336 40.2338 16.7336Z"
                                fill="black" />
                              <path
                                d="M27.7094 8.27518C26.9248 8.27518 26.2881 7.63895 26.2881 6.85502V1.75951C26.2881 0.975585 26.9248 0.339355 27.7094 0.339355C28.4939 0.339355 29.1306 0.975585 29.1306 1.75951V6.85502C29.1306 7.63895 28.4939 8.27518 27.7094 8.27518Z"
                                fill="black" />
                              <path
                                d="M14.7474 8.27518C13.9629 8.27518 13.3262 7.63895 13.3262 6.85502V1.75951C13.3262 0.975585 13.9629 0.339355 14.7474 0.339355C15.532 0.339355 16.1687 0.975585 16.1687 1.75951V6.85502C16.1687 7.63895 15.532 8.27518 14.7474 8.27518Z"
                                fill="black" />
                              <path
                                d="M18.8409 34.1333C18.4771 34.1333 18.1132 33.9969 17.8347 33.7186L13.0648 28.9526C12.5077 28.3959 12.5077 27.4983 13.0648 26.9416C13.622 26.3849 14.5202 26.3849 15.0774 26.9416L18.8466 30.7079L27.3856 22.1756C27.9428 21.6189 28.8409 21.6189 29.398 22.1756C29.9552 22.7323 29.9552 23.6298 29.398 24.1865L19.8529 33.7243C19.5743 34.0026 19.2105 34.139 18.8466 34.139L18.8409 34.1333Z"
                                fill="black" />
                            </svg>